<?xml version="1.0" standalone="no"?>
<svg xmlns:xlink="http://www.w3.org/1999/xlink" id="wave" style="transform:rotate(0deg); transition: 0.3s" viewBox="0 0 1440 490" version="1.1" xmlns="http://www.w3.org/2000/svg"><defs><linearGradient id="sw-gradient-0" x1="0" x2="0" y1="1" y2="0"><stop stop-color="rgba(255, 255, 255, 1)" offset="0%"/><stop stop-color="rgba(253.6, 215.319, 255, 0.26)" offset="100%"/></linearGradient></defs><path style="transform:translate(0, 0px); opacity:1" fill="url(#sw-gradient-0)" d="M0,98L80,89.8C160,82,320,65,480,73.5C640,82,800,114,960,171.5C1120,229,1280,310,1440,285.8C1600,261,1760,131,1920,73.5C2080,16,2240,33,2400,32.7C2560,33,2720,16,2880,24.5C3040,33,3200,65,3360,138.8C3520,212,3680,327,3840,375.7C4000,425,4160,408,4320,334.8C4480,261,4640,131,4800,65.3C4960,0,5120,0,5280,8.2C5440,16,5600,33,5760,57.2C5920,82,6080,114,6240,138.8C6400,163,6560,180,6720,228.7C6880,278,7040,359,7200,334.8C7360,310,7520,180,7680,163.3C7840,147,8000,245,8160,277.7C8320,310,8480,278,8640,294C8800,310,8960,376,9120,375.7C9280,376,9440,310,9600,261.3C9760,212,9920,180,10080,196C10240,212,10400,278,10560,285.8C10720,294,10880,245,11040,245C11200,245,11360,294,11440,318.5L11520,343L11520,490L11440,490C11360,490,11200,490,11040,490C10880,490,10720,490,10560,490C10400,490,10240,490,10080,490C9920,490,9760,490,9600,490C9440,490,9280,490,9120,490C8960,490,8800,490,8640,490C8480,490,8320,490,8160,490C8000,490,7840,490,7680,490C7520,490,7360,490,7200,490C7040,490,6880,490,6720,490C6560,490,6400,490,6240,490C6080,490,5920,490,5760,490C5600,490,5440,490,5280,490C5120,490,4960,490,4800,490C4640,490,4480,490,4320,490C4160,490,4000,490,3840,490C3680,490,3520,490,3360,490C3200,490,3040,490,2880,490C2720,490,2560,490,2400,490C2240,490,2080,490,1920,490C1760,490,1600,490,1440,490C1280,490,1120,490,960,490C800,490,640,490,480,490C320,490,160,490,80,490L0,490Z"/><defs><linearGradient id="sw-gradient-1" x1="0" x2="0" y1="1" y2="0"><stop stop-color="rgba(153.773, 154.817, 155.142, 1)" offset="0%"/><stop stop-color="rgba(142.604, 197.34, 234.829, 0.3)" offset="100%"/></linearGradient></defs><path style="transform:translate(0, 50px); opacity:0.9" fill="url(#sw-gradient-1)" d="M0,49L80,40.8C160,33,320,16,480,49C640,82,800,163,960,171.5C1120,180,1280,114,1440,89.8C1600,65,1760,82,1920,147C2080,212,2240,327,2400,334.8C2560,343,2720,245,2880,204.2C3040,163,3200,180,3360,196C3520,212,3680,229,3840,196C4000,163,4160,82,4320,65.3C4480,49,4640,98,4800,147C4960,196,5120,245,5280,228.7C5440,212,5600,131,5760,106.2C5920,82,6080,114,6240,147C6400,180,6560,212,6720,204.2C6880,196,7040,147,7200,171.5C7360,196,7520,294,7680,343C7840,392,8000,392,8160,375.7C8320,359,8480,327,8640,302.2C8800,278,8960,261,9120,277.7C9280,294,9440,343,9600,326.7C9760,310,9920,229,10080,187.8C10240,147,10400,147,10560,147C10720,147,10880,147,11040,122.5C11200,98,11360,49,11440,24.5L11520,0L11520,490L11440,490C11360,490,11200,490,11040,490C10880,490,10720,490,10560,490C10400,490,10240,490,10080,490C9920,490,9760,490,9600,490C9440,490,9280,490,9120,490C8960,490,8800,490,8640,490C8480,490,8320,490,8160,490C8000,490,7840,490,7680,490C7520,490,7360,490,7200,490C7040,490,6880,490,6720,490C6560,490,6400,490,6240,490C6080,490,5920,490,5760,490C5600,490,5440,490,5280,490C5120,490,4960,490,4800,490C4640,490,4480,490,4320,490C4160,490,4000,490,3840,490C3680,490,3520,490,3360,490C3200,490,3040,490,2880,490C2720,490,2560,490,2400,490C2240,490,2080,490,1920,490C1760,490,1600,490,1440,490C1280,490,1120,490,960,490C800,490,640,490,480,490C320,490,160,490,80,490L0,490Z"/><defs><linearGradient id="sw-gradient-2" x1="0" x2="0" y1="1" y2="0"><stop stop-color="rgba(221.116, 176.671, 232.552, 0.3)" offset="0%"/><stop stop-color="rgba(223.223, 212.44, 255, 0.48)" offset="100%"/></linearGradient></defs><path style="transform:translate(0, 100px); opacity:0.8" fill="url(#sw-gradient-2)" d="M0,147L80,147C160,147,320,147,480,122.5C640,98,800,49,960,81.7C1120,114,1280,229,1440,285.8C1600,343,1760,343,1920,334.8C2080,327,2240,310,2400,261.3C2560,212,2720,131,2880,130.7C3040,131,3200,212,3360,236.8C3520,261,3680,229,3840,204.2C4000,180,4160,163,4320,179.7C4480,196,4640,245,4800,261.3C4960,278,5120,261,5280,253.2C5440,245,5600,245,5760,212.3C5920,180,6080,114,6240,73.5C6400,33,6560,16,6720,57.2C6880,98,7040,196,7200,269.5C7360,343,7520,392,7680,351.2C7840,310,8000,180,8160,179.7C8320,180,8480,310,8640,351.2C8800,392,8960,343,9120,294C9280,245,9440,196,9600,147C9760,98,9920,49,10080,98C10240,147,10400,294,10560,318.5C10720,343,10880,245,11040,196C11200,147,11360,147,11440,147L11520,147L11520,490L11440,490C11360,490,11200,490,11040,490C10880,490,10720,490,10560,490C10400,490,10240,490,10080,490C9920,490,9760,490,9600,490C9440,490,9280,490,9120,490C8960,490,8800,490,8640,490C8480,490,8320,490,8160,490C8000,490,7840,490,7680,490C7520,490,7360,490,7200,490C7040,490,6880,490,6720,490C6560,490,6400,490,6240,490C6080,490,5920,490,5760,490C5600,490,5440,490,5280,490C5120,490,4960,490,4800,490C4640,490,4480,490,4320,490C4160,490,4000,490,3840,490C3680,490,3520,490,3360,490C3200,490,3040,490,2880,490C2720,490,2560,490,2400,490C2240,490,2080,490,1920,490C1760,490,1600,490,1440,490C1280,490,1120,490,960,490C800,490,640,490,480,490C320,490,160,490,80,490L0,490Z"/></svg>