<?xml version="1.0" standalone="no"?>
<svg xmlns:xlink="http://www.w3.org/1999/xlink" id="wave" style="transform:rotate(180deg); transition: 0.3s" viewBox="0 0 1440 490" version="1.1" xmlns="http://www.w3.org/2000/svg"><defs><linearGradient id="sw-gradient-0" x1="0" x2="0" y1="1" y2="0"><stop stop-color="rgba(136.326, 189.293, 182.116, 0.27)" offset="0%"/><stop stop-color="rgba(253.447, 211, 255, 1)" offset="100%"/></linearGradient></defs><path style="transform:translate(0, 0px); opacity:1" fill="url(#sw-gradient-0)" d="M0,441L60,432.8C120,425,240,408,360,375.7C480,343,600,294,720,236.8C840,180,960,114,1080,98C1200,82,1320,114,1440,130.7C1560,147,1680,147,1800,163.3C1920,180,2040,212,2160,228.7C2280,245,2400,245,2520,236.8C2640,229,2760,212,2880,179.7C3000,147,3120,98,3240,130.7C3360,163,3480,278,3600,285.8C3720,294,3840,196,3960,163.3C4080,131,4200,163,4320,187.8C4440,212,4560,229,4680,253.2C4800,278,4920,310,5040,285.8C5160,261,5280,180,5400,171.5C5520,163,5640,229,5760,228.7C5880,229,6000,163,6120,187.8C6240,212,6360,327,6480,326.7C6600,327,6720,212,6840,212.3C6960,212,7080,327,7200,310.3C7320,294,7440,147,7560,73.5C7680,0,7800,0,7920,49C8040,98,8160,196,8280,220.5C8400,245,8520,196,8580,171.5L8640,147L8640,490L8580,490C8520,490,8400,490,8280,490C8160,490,8040,490,7920,490C7800,490,7680,490,7560,490C7440,490,7320,490,7200,490C7080,490,6960,490,6840,490C6720,490,6600,490,6480,490C6360,490,6240,490,6120,490C6000,490,5880,490,5760,490C5640,490,5520,490,5400,490C5280,490,5160,490,5040,490C4920,490,4800,490,4680,490C4560,490,4440,490,4320,490C4200,490,4080,490,3960,490C3840,490,3720,490,3600,490C3480,490,3360,490,3240,490C3120,490,3000,490,2880,490C2760,490,2640,490,2520,490C2400,490,2280,490,2160,490C2040,490,1920,490,1800,490C1680,490,1560,490,1440,490C1320,490,1200,490,1080,490C960,490,840,490,720,490C600,490,480,490,360,490C240,490,120,490,60,490L0,490Z"/><defs><linearGradient id="sw-gradient-1" x1="0" x2="0" y1="1" y2="0"><stop stop-color="rgba(255, 255, 255, 1)" offset="0%"/><stop stop-color="rgba(255, 255, 255, 0.57)" offset="100%"/></linearGradient></defs><path style="transform:translate(0, 50px); opacity:0.9" fill="url(#sw-gradient-1)" d="M0,49L60,49C120,49,240,49,360,49C480,49,600,49,720,49C840,49,960,49,1080,40.8C1200,33,1320,16,1440,65.3C1560,114,1680,229,1800,269.5C1920,310,2040,278,2160,245C2280,212,2400,180,2520,196C2640,212,2760,278,2880,261.3C3000,245,3120,147,3240,106.2C3360,65,3480,82,3600,81.7C3720,82,3840,65,3960,65.3C4080,65,4200,82,4320,122.5C4440,163,4560,229,4680,220.5C4800,212,4920,131,5040,81.7C5160,33,5280,16,5400,24.5C5520,33,5640,65,5760,89.8C5880,114,6000,131,6120,114.3C6240,98,6360,49,6480,81.7C6600,114,6720,229,6840,277.7C6960,327,7080,310,7200,302.2C7320,294,7440,294,7560,294C7680,294,7800,294,7920,277.7C8040,261,8160,229,8280,245C8400,261,8520,327,8580,359.3L8640,392L8640,490L8580,490C8520,490,8400,490,8280,490C8160,490,8040,490,7920,490C7800,490,7680,490,7560,490C7440,490,7320,490,7200,490C7080,490,6960,490,6840,490C6720,490,6600,490,6480,490C6360,490,6240,490,6120,490C6000,490,5880,490,5760,490C5640,490,5520,490,5400,490C5280,490,5160,490,5040,490C4920,490,4800,490,4680,490C4560,490,4440,490,4320,490C4200,490,4080,490,3960,490C3840,490,3720,490,3600,490C3480,490,3360,490,3240,490C3120,490,3000,490,2880,490C2760,490,2640,490,2520,490C2400,490,2280,490,2160,490C2040,490,1920,490,1800,490C1680,490,1560,490,1440,490C1320,490,1200,490,1080,490C960,490,840,490,720,490C600,490,480,490,360,490C240,490,120,490,60,490L0,490Z"/><defs><linearGradient id="sw-gradient-2" x1="0" x2="0" y1="1" y2="0"><stop stop-color="rgba(206.524, 253.043, 249.892, 1)" offset="0%"/><stop stop-color="rgba(168.764, 141.582, 168.802, 0)" offset="100%"/></linearGradient></defs><path style="transform:translate(0, 100px); opacity:0.8" fill="url(#sw-gradient-2)" d="M0,343L60,285.8C120,229,240,114,360,73.5C480,33,600,65,720,114.3C840,163,960,229,1080,253.2C1200,278,1320,261,1440,212.3C1560,163,1680,82,1800,65.3C1920,49,2040,98,2160,122.5C2280,147,2400,147,2520,187.8C2640,229,2760,310,2880,351.2C3000,392,3120,392,3240,334.8C3360,278,3480,163,3600,106.2C3720,49,3840,49,3960,49C4080,49,4200,49,4320,57.2C4440,65,4560,82,4680,130.7C4800,180,4920,261,5040,245C5160,229,5280,114,5400,98C5520,82,5640,163,5760,187.8C5880,212,6000,180,6120,179.7C6240,180,6360,212,6480,220.5C6600,229,6720,212,6840,171.5C6960,131,7080,65,7200,32.7C7320,0,7440,0,7560,49C7680,98,7800,196,7920,269.5C8040,343,8160,392,8280,375.7C8400,359,8520,278,8580,236.8L8640,196L8640,490L8580,490C8520,490,8400,490,8280,490C8160,490,8040,490,7920,490C7800,490,7680,490,7560,490C7440,490,7320,490,7200,490C7080,490,6960,490,6840,490C6720,490,6600,490,6480,490C6360,490,6240,490,6120,490C6000,490,5880,490,5760,490C5640,490,5520,490,5400,490C5280,490,5160,490,5040,490C4920,490,4800,490,4680,490C4560,490,4440,490,4320,490C4200,490,4080,490,3960,490C3840,490,3720,490,3600,490C3480,490,3360,490,3240,490C3120,490,3000,490,2880,490C2760,490,2640,490,2520,490C2400,490,2280,490,2160,490C2040,490,1920,490,1800,490C1680,490,1560,490,1440,490C1320,490,1200,490,1080,490C960,490,840,490,720,490C600,490,480,490,360,490C240,490,120,490,60,490L0,490Z"/></svg>